<mxfile host="app.diagrams.net" agent="Mozilla/5.0 (Windows NT 10.0; Win64; x64) AppleWebKit/537.36 (KHTML, like Gecko) Chrome/139.0.0.0 Safari/537.36 Edg/139.0.0.0" version="28.1.1">
  <diagram name="Page-1" id="bCg78tK670rWkkOkK3GK">
    <mxGraphModel dx="3435" dy="2545" grid="1" gridSize="10" guides="1" tooltips="1" connect="1" arrows="1" fold="1" page="1" pageScale="1" pageWidth="850" pageHeight="1100" math="0" shadow="0">
      <root>
        <mxCell id="0" />
        <mxCell id="1" parent="0" />
        <mxCell id="uy_4LIVcbHyhsobTiHdw-1" value="Branch" style="rounded=0;whiteSpace=wrap;html=1;" vertex="1" parent="1">
          <mxGeometry x="170" y="160" width="120" height="60" as="geometry" />
        </mxCell>
        <mxCell id="uy_4LIVcbHyhsobTiHdw-2" value="Package" style="rounded=0;whiteSpace=wrap;html=1;" vertex="1" parent="1">
          <mxGeometry x="496" y="160" width="120" height="60" as="geometry" />
        </mxCell>
        <mxCell id="uy_4LIVcbHyhsobTiHdw-3" value="Have" style="rhombus;whiteSpace=wrap;html=1;" vertex="1" parent="1">
          <mxGeometry x="343" y="150" width="80" height="80" as="geometry" />
        </mxCell>
        <mxCell id="uy_4LIVcbHyhsobTiHdw-4" value="" style="endArrow=none;html=1;rounded=0;exitX=1;exitY=0.5;exitDx=0;exitDy=0;entryX=0;entryY=0.5;entryDx=0;entryDy=0;" edge="1" parent="1" source="uy_4LIVcbHyhsobTiHdw-7" target="uy_4LIVcbHyhsobTiHdw-1">
          <mxGeometry width="50" height="50" relative="1" as="geometry">
            <mxPoint x="210" y="120" as="sourcePoint" />
            <mxPoint x="260" y="70" as="targetPoint" />
          </mxGeometry>
        </mxCell>
        <mxCell id="uy_4LIVcbHyhsobTiHdw-5" value="" style="endArrow=none;html=1;rounded=0;exitX=1;exitY=0.5;exitDx=0;exitDy=0;entryX=0;entryY=0.5;entryDx=0;entryDy=0;" edge="1" parent="1" source="uy_4LIVcbHyhsobTiHdw-3" target="uy_4LIVcbHyhsobTiHdw-2">
          <mxGeometry width="50" height="50" relative="1" as="geometry">
            <mxPoint x="210" y="120" as="sourcePoint" />
            <mxPoint x="260" y="70" as="targetPoint" />
          </mxGeometry>
        </mxCell>
        <mxCell id="uy_4LIVcbHyhsobTiHdw-6" value="" style="endArrow=none;html=1;rounded=0;exitX=1;exitY=0.5;exitDx=0;exitDy=0;entryX=0;entryY=0.5;entryDx=0;entryDy=0;" edge="1" parent="1" source="uy_4LIVcbHyhsobTiHdw-1" target="uy_4LIVcbHyhsobTiHdw-3">
          <mxGeometry width="50" height="50" relative="1" as="geometry">
            <mxPoint x="210" y="120" as="sourcePoint" />
            <mxPoint x="260" y="70" as="targetPoint" />
          </mxGeometry>
        </mxCell>
        <mxCell id="uy_4LIVcbHyhsobTiHdw-7" value="&lt;u&gt;OfficeId&lt;/u&gt;" style="ellipse;whiteSpace=wrap;html=1;" vertex="1" parent="1">
          <mxGeometry x="30" y="170" width="70" height="30" as="geometry" />
        </mxCell>
        <mxCell id="uy_4LIVcbHyhsobTiHdw-8" value="OfficeName" style="ellipse;whiteSpace=wrap;html=1;" vertex="1" parent="1">
          <mxGeometry x="30" y="205" width="70" height="30" as="geometry" />
        </mxCell>
        <mxCell id="uy_4LIVcbHyhsobTiHdw-9" value="" style="endArrow=none;html=1;rounded=0;exitX=0;exitY=0.5;exitDx=0;exitDy=0;entryX=1;entryY=0.5;entryDx=0;entryDy=0;" edge="1" parent="1" source="uy_4LIVcbHyhsobTiHdw-1" target="uy_4LIVcbHyhsobTiHdw-8">
          <mxGeometry width="50" height="50" relative="1" as="geometry">
            <mxPoint x="200" y="140" as="sourcePoint" />
            <mxPoint x="250" y="90" as="targetPoint" />
          </mxGeometry>
        </mxCell>
        <mxCell id="uy_4LIVcbHyhsobTiHdw-10" value="M" style="text;html=1;align=center;verticalAlign=middle;resizable=0;points=[];autosize=1;strokeColor=none;fillColor=none;" vertex="1" parent="1">
          <mxGeometry x="303" y="168" width="30" height="30" as="geometry" />
        </mxCell>
        <mxCell id="uy_4LIVcbHyhsobTiHdw-11" value="N" style="text;html=1;align=center;verticalAlign=middle;resizable=0;points=[];autosize=1;strokeColor=none;fillColor=none;" vertex="1" parent="1">
          <mxGeometry x="442" y="168" width="30" height="30" as="geometry" />
        </mxCell>
        <mxCell id="uy_4LIVcbHyhsobTiHdw-12" value="PackageName" style="ellipse;whiteSpace=wrap;html=1;" vertex="1" parent="1">
          <mxGeometry x="466" y="86" width="85" height="25" as="geometry" />
        </mxCell>
        <mxCell id="uy_4LIVcbHyhsobTiHdw-13" value="&lt;u&gt;PackageId&lt;/u&gt;" style="ellipse;whiteSpace=wrap;html=1;" vertex="1" parent="1">
          <mxGeometry x="451" y="115" width="70" height="30" as="geometry" />
        </mxCell>
        <mxCell id="uy_4LIVcbHyhsobTiHdw-14" value="" style="endArrow=none;html=1;rounded=0;exitX=0.5;exitY=0;exitDx=0;exitDy=0;entryX=0.5;entryY=1;entryDx=0;entryDy=0;" edge="1" parent="1" source="uy_4LIVcbHyhsobTiHdw-2" target="uy_4LIVcbHyhsobTiHdw-12">
          <mxGeometry width="50" height="50" relative="1" as="geometry">
            <mxPoint x="216" y="90" as="sourcePoint" />
            <mxPoint x="266" y="40" as="targetPoint" />
          </mxGeometry>
        </mxCell>
        <mxCell id="uy_4LIVcbHyhsobTiHdw-16" value="" style="endArrow=none;html=1;rounded=0;entryX=0.5;entryY=1;entryDx=0;entryDy=0;exitX=0.5;exitY=0;exitDx=0;exitDy=0;" edge="1" parent="1" source="uy_4LIVcbHyhsobTiHdw-2" target="uy_4LIVcbHyhsobTiHdw-13">
          <mxGeometry width="50" height="50" relative="1" as="geometry">
            <mxPoint x="226" y="120" as="sourcePoint" />
            <mxPoint x="276" y="70" as="targetPoint" />
          </mxGeometry>
        </mxCell>
        <mxCell id="uy_4LIVcbHyhsobTiHdw-19" value="Facilitie" style="rounded=0;whiteSpace=wrap;html=1;fillColor=#f8cecc;strokeColor=#b85450;" vertex="1" parent="1">
          <mxGeometry x="690" y="-310" width="120" height="60" as="geometry" />
        </mxCell>
        <mxCell id="uy_4LIVcbHyhsobTiHdw-20" value="&lt;u&gt;FacilitiesId&lt;/u&gt;" style="ellipse;whiteSpace=wrap;html=1;fillColor=#f8cecc;strokeColor=#b85450;" vertex="1" parent="1">
          <mxGeometry x="830" y="-360" width="70" height="30" as="geometry" />
        </mxCell>
        <mxCell id="uy_4LIVcbHyhsobTiHdw-21" value="FacilitiesName" style="ellipse;whiteSpace=wrap;html=1;fillColor=#f8cecc;strokeColor=#b85450;" vertex="1" parent="1">
          <mxGeometry x="828" y="-324" width="80" height="30" as="geometry" />
        </mxCell>
        <mxCell id="uy_4LIVcbHyhsobTiHdw-24" value="" style="endArrow=none;html=1;rounded=0;entryX=0;entryY=0.5;entryDx=0;entryDy=0;exitX=1;exitY=0.5;exitDx=0;exitDy=0;fillColor=#f8cecc;strokeColor=#b85450;" edge="1" parent="1" source="uy_4LIVcbHyhsobTiHdw-19" target="uy_4LIVcbHyhsobTiHdw-21">
          <mxGeometry width="50" height="50" relative="1" as="geometry">
            <mxPoint x="480" y="-310" as="sourcePoint" />
            <mxPoint x="530" y="-360" as="targetPoint" />
          </mxGeometry>
        </mxCell>
        <mxCell id="uy_4LIVcbHyhsobTiHdw-26" value="" style="endArrow=none;html=1;rounded=0;entryX=0;entryY=0.5;entryDx=0;entryDy=0;exitX=1;exitY=0.5;exitDx=0;exitDy=0;fillColor=#f8cecc;strokeColor=#b85450;" edge="1" parent="1" source="uy_4LIVcbHyhsobTiHdw-19" target="uy_4LIVcbHyhsobTiHdw-20">
          <mxGeometry width="50" height="50" relative="1" as="geometry">
            <mxPoint x="500" y="-290" as="sourcePoint" />
            <mxPoint x="550" y="-340" as="targetPoint" />
          </mxGeometry>
        </mxCell>
        <mxCell id="uy_4LIVcbHyhsobTiHdw-27" value="Price" style="ellipse;whiteSpace=wrap;html=1;" vertex="1" parent="1">
          <mxGeometry x="521" y="55" width="70" height="30" as="geometry" />
        </mxCell>
        <mxCell id="uy_4LIVcbHyhsobTiHdw-28" value="" style="endArrow=none;html=1;rounded=0;entryX=0.5;entryY=1;entryDx=0;entryDy=0;exitX=0.5;exitY=0;exitDx=0;exitDy=0;" edge="1" parent="1" source="uy_4LIVcbHyhsobTiHdw-2" target="uy_4LIVcbHyhsobTiHdw-30">
          <mxGeometry width="50" height="50" relative="1" as="geometry">
            <mxPoint x="246" y="370" as="sourcePoint" />
            <mxPoint x="296" y="320" as="targetPoint" />
          </mxGeometry>
        </mxCell>
        <mxCell id="uy_4LIVcbHyhsobTiHdw-29" value="" style="endArrow=none;html=1;rounded=0;entryX=0.5;entryY=1;entryDx=0;entryDy=0;exitX=0.5;exitY=0;exitDx=0;exitDy=0;" edge="1" parent="1" source="uy_4LIVcbHyhsobTiHdw-2" target="uy_4LIVcbHyhsobTiHdw-27">
          <mxGeometry width="50" height="50" relative="1" as="geometry">
            <mxPoint x="246" y="370" as="sourcePoint" />
            <mxPoint x="296" y="320" as="targetPoint" />
          </mxGeometry>
        </mxCell>
        <mxCell id="uy_4LIVcbHyhsobTiHdw-30" value="Style" style="ellipse;whiteSpace=wrap;html=1;" vertex="1" parent="1">
          <mxGeometry x="576" y="25" width="70" height="30" as="geometry" />
        </mxCell>
        <mxCell id="uy_4LIVcbHyhsobTiHdw-31" value="Status" style="ellipse;whiteSpace=wrap;html=1;" vertex="1" parent="1">
          <mxGeometry x="626" width="70" height="30" as="geometry" />
        </mxCell>
        <mxCell id="uy_4LIVcbHyhsobTiHdw-32" value="" style="endArrow=none;html=1;rounded=0;exitX=0.5;exitY=0;exitDx=0;exitDy=0;entryX=0.5;entryY=1;entryDx=0;entryDy=0;" edge="1" parent="1" source="uy_4LIVcbHyhsobTiHdw-2" target="uy_4LIVcbHyhsobTiHdw-31">
          <mxGeometry width="50" height="50" relative="1" as="geometry">
            <mxPoint x="686" y="240" as="sourcePoint" />
            <mxPoint x="736" y="190" as="targetPoint" />
          </mxGeometry>
        </mxCell>
        <mxCell id="uy_4LIVcbHyhsobTiHdw-33" value="Address" style="ellipse;whiteSpace=wrap;html=1;" vertex="1" parent="1">
          <mxGeometry x="10" y="235" width="60" height="30" as="geometry" />
        </mxCell>
        <mxCell id="uy_4LIVcbHyhsobTiHdw-34" value="Tp" style="ellipse;whiteSpace=wrap;html=1;" vertex="1" parent="1">
          <mxGeometry y="270" width="45" height="30" as="geometry" />
        </mxCell>
        <mxCell id="uy_4LIVcbHyhsobTiHdw-35" value="email" style="ellipse;whiteSpace=wrap;html=1;" vertex="1" parent="1">
          <mxGeometry x="41" y="287" width="70" height="30" as="geometry" />
        </mxCell>
        <mxCell id="uy_4LIVcbHyhsobTiHdw-36" value="" style="endArrow=none;html=1;rounded=0;entryX=0.5;entryY=0;entryDx=0;entryDy=0;exitX=0;exitY=0.5;exitDx=0;exitDy=0;" edge="1" parent="1" source="uy_4LIVcbHyhsobTiHdw-1" target="uy_4LIVcbHyhsobTiHdw-35">
          <mxGeometry width="50" height="50" relative="1" as="geometry">
            <mxPoint x="290" y="300" as="sourcePoint" />
            <mxPoint x="340" y="250" as="targetPoint" />
          </mxGeometry>
        </mxCell>
        <mxCell id="uy_4LIVcbHyhsobTiHdw-37" value="" style="endArrow=none;html=1;rounded=0;entryX=1;entryY=0.5;entryDx=0;entryDy=0;exitX=0;exitY=0.5;exitDx=0;exitDy=0;" edge="1" parent="1" source="uy_4LIVcbHyhsobTiHdw-1" target="uy_4LIVcbHyhsobTiHdw-34">
          <mxGeometry width="50" height="50" relative="1" as="geometry">
            <mxPoint x="280" y="300" as="sourcePoint" />
            <mxPoint x="330" y="250" as="targetPoint" />
          </mxGeometry>
        </mxCell>
        <mxCell id="uy_4LIVcbHyhsobTiHdw-38" value="" style="endArrow=none;html=1;rounded=0;entryX=1;entryY=0.5;entryDx=0;entryDy=0;exitX=0;exitY=0.5;exitDx=0;exitDy=0;" edge="1" parent="1" source="uy_4LIVcbHyhsobTiHdw-1" target="uy_4LIVcbHyhsobTiHdw-33">
          <mxGeometry width="50" height="50" relative="1" as="geometry">
            <mxPoint x="280" y="300" as="sourcePoint" />
            <mxPoint x="330" y="250" as="targetPoint" />
          </mxGeometry>
        </mxCell>
        <mxCell id="uy_4LIVcbHyhsobTiHdw-44" value="Customer" style="rounded=0;whiteSpace=wrap;html=1;" vertex="1" parent="1">
          <mxGeometry x="820" y="-40" width="120" height="60" as="geometry" />
        </mxCell>
        <mxCell id="uy_4LIVcbHyhsobTiHdw-45" value="have" style="rhombus;whiteSpace=wrap;html=1;" vertex="1" parent="1">
          <mxGeometry x="676" y="150" width="80" height="80" as="geometry" />
        </mxCell>
        <mxCell id="uy_4LIVcbHyhsobTiHdw-47" value="" style="endArrow=none;html=1;rounded=0;exitX=1;exitY=0.5;exitDx=0;exitDy=0;entryX=0;entryY=0.5;entryDx=0;entryDy=0;" edge="1" parent="1" source="uy_4LIVcbHyhsobTiHdw-2" target="uy_4LIVcbHyhsobTiHdw-45">
          <mxGeometry width="50" height="50" relative="1" as="geometry">
            <mxPoint x="806" y="100" as="sourcePoint" />
            <mxPoint x="856" y="50" as="targetPoint" />
          </mxGeometry>
        </mxCell>
        <mxCell id="uy_4LIVcbHyhsobTiHdw-48" value="&lt;u&gt;Id&lt;/u&gt;" style="ellipse;whiteSpace=wrap;html=1;" vertex="1" parent="1">
          <mxGeometry x="730" y="-79" width="70" height="30" as="geometry" />
        </mxCell>
        <mxCell id="uy_4LIVcbHyhsobTiHdw-49" value="Name" style="ellipse;whiteSpace=wrap;html=1;" vertex="1" parent="1">
          <mxGeometry x="740" y="-123" width="70" height="30" as="geometry" />
        </mxCell>
        <mxCell id="uy_4LIVcbHyhsobTiHdw-50" value="email" style="ellipse;whiteSpace=wrap;html=1;" vertex="1" parent="1">
          <mxGeometry x="780" y="-153" width="70" height="30" as="geometry" />
        </mxCell>
        <mxCell id="uy_4LIVcbHyhsobTiHdw-52" value="Message" style="ellipse;whiteSpace=wrap;html=1;" vertex="1" parent="1">
          <mxGeometry x="1028" y="244" width="70" height="31" as="geometry" />
        </mxCell>
        <mxCell id="uy_4LIVcbHyhsobTiHdw-54" value="" style="endArrow=none;html=1;rounded=0;entryX=0;entryY=0.5;entryDx=0;entryDy=0;exitX=1;exitY=0.5;exitDx=0;exitDy=0;" edge="1" parent="1" source="uy_4LIVcbHyhsobTiHdw-152" target="uy_4LIVcbHyhsobTiHdw-52">
          <mxGeometry width="50" height="50" relative="1" as="geometry">
            <mxPoint x="830" y="120" as="sourcePoint" />
            <mxPoint x="880" y="70" as="targetPoint" />
          </mxGeometry>
        </mxCell>
        <mxCell id="uy_4LIVcbHyhsobTiHdw-56" value="" style="endArrow=none;html=1;rounded=0;entryX=0.5;entryY=1;entryDx=0;entryDy=0;exitX=0.5;exitY=0;exitDx=0;exitDy=0;" edge="1" parent="1" source="uy_4LIVcbHyhsobTiHdw-44" target="uy_4LIVcbHyhsobTiHdw-50">
          <mxGeometry width="50" height="50" relative="1" as="geometry">
            <mxPoint x="830" y="120" as="sourcePoint" />
            <mxPoint x="880" y="70" as="targetPoint" />
          </mxGeometry>
        </mxCell>
        <mxCell id="uy_4LIVcbHyhsobTiHdw-57" value="" style="endArrow=none;html=1;rounded=0;entryX=0.5;entryY=1;entryDx=0;entryDy=0;exitX=0.5;exitY=0;exitDx=0;exitDy=0;" edge="1" parent="1" source="uy_4LIVcbHyhsobTiHdw-44" target="uy_4LIVcbHyhsobTiHdw-49">
          <mxGeometry width="50" height="50" relative="1" as="geometry">
            <mxPoint x="830" y="120" as="sourcePoint" />
            <mxPoint x="880" y="70" as="targetPoint" />
          </mxGeometry>
        </mxCell>
        <mxCell id="uy_4LIVcbHyhsobTiHdw-58" value="" style="endArrow=none;html=1;rounded=0;entryX=1;entryY=0.5;entryDx=0;entryDy=0;exitX=0.5;exitY=0;exitDx=0;exitDy=0;" edge="1" parent="1" source="uy_4LIVcbHyhsobTiHdw-44" target="uy_4LIVcbHyhsobTiHdw-48">
          <mxGeometry width="50" height="50" relative="1" as="geometry">
            <mxPoint x="830" y="120" as="sourcePoint" />
            <mxPoint x="880" y="70" as="targetPoint" />
          </mxGeometry>
        </mxCell>
        <mxCell id="uy_4LIVcbHyhsobTiHdw-59" value="Status" style="ellipse;whiteSpace=wrap;html=1;" vertex="1" parent="1">
          <mxGeometry x="940" y="271" width="70" height="30" as="geometry" />
        </mxCell>
        <mxCell id="uy_4LIVcbHyhsobTiHdw-60" value="" style="endArrow=none;html=1;rounded=0;exitX=0.5;exitY=0;exitDx=0;exitDy=0;entryX=1;entryY=0.5;entryDx=0;entryDy=0;" edge="1" parent="1" source="uy_4LIVcbHyhsobTiHdw-59" target="uy_4LIVcbHyhsobTiHdw-152">
          <mxGeometry width="50" height="50" relative="1" as="geometry">
            <mxPoint x="785" y="310" as="sourcePoint" />
            <mxPoint x="835" y="260" as="targetPoint" />
          </mxGeometry>
        </mxCell>
        <mxCell id="uy_4LIVcbHyhsobTiHdw-61" value="MessageEmail" style="rounded=0;whiteSpace=wrap;html=1;fillColor=#f8cecc;strokeColor=#b85450;" vertex="1" parent="1">
          <mxGeometry x="501" y="-310" width="120" height="60" as="geometry" />
        </mxCell>
        <mxCell id="uy_4LIVcbHyhsobTiHdw-62" value="Have" style="rhombus;whiteSpace=wrap;html=1;" vertex="1" parent="1">
          <mxGeometry x="840" y="50" width="80" height="80" as="geometry" />
        </mxCell>
        <mxCell id="uy_4LIVcbHyhsobTiHdw-64" value="" style="endArrow=none;html=1;rounded=0;exitX=0.5;exitY=0;exitDx=0;exitDy=0;entryX=0.5;entryY=1;entryDx=0;entryDy=0;" edge="1" parent="1" source="uy_4LIVcbHyhsobTiHdw-152" target="uy_4LIVcbHyhsobTiHdw-62">
          <mxGeometry width="50" height="50" relative="1" as="geometry">
            <mxPoint x="670" y="-209" as="sourcePoint" />
            <mxPoint x="720" y="-259" as="targetPoint" />
          </mxGeometry>
        </mxCell>
        <mxCell id="uy_4LIVcbHyhsobTiHdw-67" value="&lt;u&gt;MessageId&lt;/u&gt;" style="ellipse;whiteSpace=wrap;html=1;fillColor=#f8cecc;strokeColor=#b85450;" vertex="1" parent="1">
          <mxGeometry x="482" y="-415" width="70" height="30" as="geometry" />
        </mxCell>
        <mxCell id="uy_4LIVcbHyhsobTiHdw-68" value="SenderName" style="ellipse;whiteSpace=wrap;html=1;fillColor=#f8cecc;strokeColor=#b85450;" vertex="1" parent="1">
          <mxGeometry x="461" y="-383" width="70" height="30" as="geometry" />
        </mxCell>
        <mxCell id="uy_4LIVcbHyhsobTiHdw-69" value="SenderEmail" style="ellipse;whiteSpace=wrap;html=1;fillColor=#f8cecc;strokeColor=#b85450;" vertex="1" parent="1">
          <mxGeometry x="562" y="-427" width="70" height="30" as="geometry" />
        </mxCell>
        <mxCell id="uy_4LIVcbHyhsobTiHdw-70" value="Subject" style="ellipse;whiteSpace=wrap;html=1;fillColor=#f8cecc;strokeColor=#b85450;" vertex="1" parent="1">
          <mxGeometry x="590.5" y="-391" width="70" height="30" as="geometry" />
        </mxCell>
        <mxCell id="uy_4LIVcbHyhsobTiHdw-71" value="Message" style="ellipse;whiteSpace=wrap;html=1;fillColor=#f8cecc;strokeColor=#b85450;" vertex="1" parent="1">
          <mxGeometry x="596" y="-351" width="70" height="30" as="geometry" />
        </mxCell>
        <mxCell id="uy_4LIVcbHyhsobTiHdw-72" value="" style="endArrow=none;html=1;rounded=0;entryX=1;entryY=1;entryDx=0;entryDy=0;exitX=0.5;exitY=0;exitDx=0;exitDy=0;fillColor=#f8cecc;strokeColor=#b85450;" edge="1" parent="1" source="uy_4LIVcbHyhsobTiHdw-61" target="uy_4LIVcbHyhsobTiHdw-68">
          <mxGeometry width="50" height="50" relative="1" as="geometry">
            <mxPoint x="421" y="-161" as="sourcePoint" />
            <mxPoint x="471" y="-211" as="targetPoint" />
          </mxGeometry>
        </mxCell>
        <mxCell id="uy_4LIVcbHyhsobTiHdw-73" value="" style="endArrow=none;html=1;rounded=0;entryX=0;entryY=0.5;entryDx=0;entryDy=0;exitX=0.5;exitY=0;exitDx=0;exitDy=0;fillColor=#f8cecc;strokeColor=#b85450;" edge="1" parent="1" source="uy_4LIVcbHyhsobTiHdw-61" target="uy_4LIVcbHyhsobTiHdw-71">
          <mxGeometry width="50" height="50" relative="1" as="geometry">
            <mxPoint x="421" y="-151" as="sourcePoint" />
            <mxPoint x="471" y="-201" as="targetPoint" />
          </mxGeometry>
        </mxCell>
        <mxCell id="uy_4LIVcbHyhsobTiHdw-74" value="" style="endArrow=none;html=1;rounded=0;entryX=0;entryY=0.5;entryDx=0;entryDy=0;exitX=0.5;exitY=0;exitDx=0;exitDy=0;fillColor=#f8cecc;strokeColor=#b85450;" edge="1" parent="1" source="uy_4LIVcbHyhsobTiHdw-61" target="uy_4LIVcbHyhsobTiHdw-70">
          <mxGeometry width="50" height="50" relative="1" as="geometry">
            <mxPoint x="421" y="-151" as="sourcePoint" />
            <mxPoint x="471" y="-201" as="targetPoint" />
          </mxGeometry>
        </mxCell>
        <mxCell id="uy_4LIVcbHyhsobTiHdw-75" value="" style="endArrow=none;html=1;rounded=0;entryX=0;entryY=1;entryDx=0;entryDy=0;exitX=0.5;exitY=0;exitDx=0;exitDy=0;fillColor=#f8cecc;strokeColor=#b85450;" edge="1" parent="1" source="uy_4LIVcbHyhsobTiHdw-61" target="uy_4LIVcbHyhsobTiHdw-69">
          <mxGeometry width="50" height="50" relative="1" as="geometry">
            <mxPoint x="421" y="-151" as="sourcePoint" />
            <mxPoint x="471" y="-201" as="targetPoint" />
          </mxGeometry>
        </mxCell>
        <mxCell id="uy_4LIVcbHyhsobTiHdw-76" value="" style="endArrow=none;html=1;rounded=0;entryX=1;entryY=1;entryDx=0;entryDy=0;exitX=0.5;exitY=0;exitDx=0;exitDy=0;fillColor=#f8cecc;strokeColor=#b85450;" edge="1" parent="1" source="uy_4LIVcbHyhsobTiHdw-61" target="uy_4LIVcbHyhsobTiHdw-67">
          <mxGeometry width="50" height="50" relative="1" as="geometry">
            <mxPoint x="421" y="-151" as="sourcePoint" />
            <mxPoint x="471" y="-201" as="targetPoint" />
          </mxGeometry>
        </mxCell>
        <mxCell id="uy_4LIVcbHyhsobTiHdw-77" value="staff" style="rounded=0;whiteSpace=wrap;html=1;" vertex="1" parent="1">
          <mxGeometry x="170" y="-16" width="120" height="60" as="geometry" />
        </mxCell>
        <mxCell id="uy_4LIVcbHyhsobTiHdw-78" value="has" style="rhombus;whiteSpace=wrap;html=1;" vertex="1" parent="1">
          <mxGeometry x="190" y="61" width="80" height="80" as="geometry" />
        </mxCell>
        <mxCell id="uy_4LIVcbHyhsobTiHdw-79" value="" style="endArrow=none;html=1;rounded=0;exitX=0.5;exitY=0;exitDx=0;exitDy=0;entryX=0.5;entryY=1;entryDx=0;entryDy=0;" edge="1" parent="1" source="uy_4LIVcbHyhsobTiHdw-78" target="uy_4LIVcbHyhsobTiHdw-77">
          <mxGeometry width="50" height="50" relative="1" as="geometry">
            <mxPoint x="360" y="90" as="sourcePoint" />
            <mxPoint x="410" y="40" as="targetPoint" />
          </mxGeometry>
        </mxCell>
        <mxCell id="uy_4LIVcbHyhsobTiHdw-80" value="" style="endArrow=none;html=1;rounded=0;exitX=0.5;exitY=0;exitDx=0;exitDy=0;entryX=0.5;entryY=1;entryDx=0;entryDy=0;" edge="1" parent="1" source="uy_4LIVcbHyhsobTiHdw-1" target="uy_4LIVcbHyhsobTiHdw-78">
          <mxGeometry width="50" height="50" relative="1" as="geometry">
            <mxPoint x="340" y="60" as="sourcePoint" />
            <mxPoint x="390" y="10" as="targetPoint" />
          </mxGeometry>
        </mxCell>
        <mxCell id="uy_4LIVcbHyhsobTiHdw-82" value="&lt;u&gt;UserId&lt;/u&gt;" style="ellipse;whiteSpace=wrap;html=1;" vertex="1" parent="1">
          <mxGeometry x="299" y="-60" width="70" height="30" as="geometry" />
        </mxCell>
        <mxCell id="uy_4LIVcbHyhsobTiHdw-83" value="UserName" style="ellipse;whiteSpace=wrap;html=1;" vertex="1" parent="1">
          <mxGeometry x="259" y="-130" width="70" height="30" as="geometry" />
        </mxCell>
        <mxCell id="uy_4LIVcbHyhsobTiHdw-84" value="Type" style="ellipse;whiteSpace=wrap;html=1;" vertex="1" parent="1">
          <mxGeometry x="291" y="-93" width="70" height="30" as="geometry" />
        </mxCell>
        <mxCell id="uy_4LIVcbHyhsobTiHdw-85" value="" style="endArrow=none;html=1;rounded=0;entryX=0;entryY=1;entryDx=0;entryDy=0;exitX=0.5;exitY=0;exitDx=0;exitDy=0;" edge="1" parent="1" source="uy_4LIVcbHyhsobTiHdw-77" target="uy_4LIVcbHyhsobTiHdw-82">
          <mxGeometry width="50" height="50" relative="1" as="geometry">
            <mxPoint x="40" y="-20" as="sourcePoint" />
            <mxPoint x="90" y="-70" as="targetPoint" />
          </mxGeometry>
        </mxCell>
        <mxCell id="uy_4LIVcbHyhsobTiHdw-86" value="" style="endArrow=none;html=1;rounded=0;entryX=0;entryY=1;entryDx=0;entryDy=0;exitX=0.5;exitY=0;exitDx=0;exitDy=0;" edge="1" parent="1" source="uy_4LIVcbHyhsobTiHdw-77" target="uy_4LIVcbHyhsobTiHdw-84">
          <mxGeometry width="50" height="50" relative="1" as="geometry">
            <mxPoint x="40" y="-20" as="sourcePoint" />
            <mxPoint x="90" y="-70" as="targetPoint" />
          </mxGeometry>
        </mxCell>
        <mxCell id="uy_4LIVcbHyhsobTiHdw-87" value="" style="endArrow=none;html=1;rounded=0;entryX=0.5;entryY=1;entryDx=0;entryDy=0;exitX=0.5;exitY=0;exitDx=0;exitDy=0;" edge="1" parent="1" source="uy_4LIVcbHyhsobTiHdw-77" target="uy_4LIVcbHyhsobTiHdw-83">
          <mxGeometry width="50" height="50" relative="1" as="geometry">
            <mxPoint x="40" y="-20" as="sourcePoint" />
            <mxPoint x="90" y="-70" as="targetPoint" />
          </mxGeometry>
        </mxCell>
        <mxCell id="uy_4LIVcbHyhsobTiHdw-89" value="State" style="ellipse;whiteSpace=wrap;html=1;" vertex="1" parent="1">
          <mxGeometry x="-60" y="176" width="60" height="30" as="geometry" />
        </mxCell>
        <mxCell id="uy_4LIVcbHyhsobTiHdw-90" value="City" style="ellipse;whiteSpace=wrap;html=1;" vertex="1" parent="1">
          <mxGeometry x="-60" y="210" width="60" height="30" as="geometry" />
        </mxCell>
        <mxCell id="uy_4LIVcbHyhsobTiHdw-91" value="Address" style="ellipse;whiteSpace=wrap;html=1;" vertex="1" parent="1">
          <mxGeometry x="-60" y="137" width="60" height="30" as="geometry" />
        </mxCell>
        <mxCell id="uy_4LIVcbHyhsobTiHdw-93" value="" style="endArrow=none;html=1;rounded=0;entryX=1;entryY=0.5;entryDx=0;entryDy=0;exitX=0;exitY=0.5;exitDx=0;exitDy=0;" edge="1" parent="1" source="uy_4LIVcbHyhsobTiHdw-33" target="uy_4LIVcbHyhsobTiHdw-91">
          <mxGeometry width="50" height="50" relative="1" as="geometry">
            <mxPoint x="-40" y="300" as="sourcePoint" />
            <mxPoint x="10" y="250" as="targetPoint" />
          </mxGeometry>
        </mxCell>
        <mxCell id="uy_4LIVcbHyhsobTiHdw-94" value="" style="endArrow=none;html=1;rounded=0;entryX=1;entryY=0.5;entryDx=0;entryDy=0;exitX=0;exitY=0.5;exitDx=0;exitDy=0;" edge="1" parent="1" source="uy_4LIVcbHyhsobTiHdw-33" target="uy_4LIVcbHyhsobTiHdw-89">
          <mxGeometry width="50" height="50" relative="1" as="geometry">
            <mxPoint x="-40" y="300" as="sourcePoint" />
            <mxPoint x="10" y="250" as="targetPoint" />
          </mxGeometry>
        </mxCell>
        <mxCell id="uy_4LIVcbHyhsobTiHdw-95" value="" style="endArrow=none;html=1;rounded=0;entryX=1;entryY=0.5;entryDx=0;entryDy=0;exitX=0;exitY=0.5;exitDx=0;exitDy=0;" edge="1" parent="1" source="uy_4LIVcbHyhsobTiHdw-33" target="uy_4LIVcbHyhsobTiHdw-90">
          <mxGeometry width="50" height="50" relative="1" as="geometry">
            <mxPoint x="-40" y="300" as="sourcePoint" />
            <mxPoint x="10" y="250" as="targetPoint" />
          </mxGeometry>
        </mxCell>
        <mxCell id="uy_4LIVcbHyhsobTiHdw-100" value="Date" style="ellipse;whiteSpace=wrap;html=1;" vertex="1" parent="1">
          <mxGeometry x="913" y="-153" width="70" height="30" as="geometry" />
        </mxCell>
        <mxCell id="uy_4LIVcbHyhsobTiHdw-101" value="" style="endArrow=none;html=1;rounded=0;exitX=0.5;exitY=0;exitDx=0;exitDy=0;entryX=0;entryY=1;entryDx=0;entryDy=0;" edge="1" parent="1" source="uy_4LIVcbHyhsobTiHdw-44" target="uy_4LIVcbHyhsobTiHdw-100">
          <mxGeometry width="50" height="50" relative="1" as="geometry">
            <mxPoint x="990" y="50" as="sourcePoint" />
            <mxPoint x="1040" as="targetPoint" />
          </mxGeometry>
        </mxCell>
        <mxCell id="uy_4LIVcbHyhsobTiHdw-109" value="1" style="text;html=1;align=center;verticalAlign=middle;resizable=0;points=[];autosize=1;strokeColor=none;fillColor=none;" vertex="1" parent="1">
          <mxGeometry x="621" y="165" width="30" height="30" as="geometry" />
        </mxCell>
        <mxCell id="uy_4LIVcbHyhsobTiHdw-110" value="M" style="text;html=1;align=center;verticalAlign=middle;resizable=0;points=[];autosize=1;strokeColor=none;fillColor=none;" vertex="1" parent="1">
          <mxGeometry x="225" y="38" width="30" height="30" as="geometry" />
        </mxCell>
        <mxCell id="uy_4LIVcbHyhsobTiHdw-111" value="1" style="text;html=1;align=center;verticalAlign=middle;resizable=0;points=[];autosize=1;strokeColor=none;fillColor=none;" vertex="1" parent="1">
          <mxGeometry x="225" y="128" width="30" height="30" as="geometry" />
        </mxCell>
        <mxCell id="uy_4LIVcbHyhsobTiHdw-112" value="Date" style="ellipse;whiteSpace=wrap;html=1;fillColor=#f8cecc;strokeColor=#b85450;" vertex="1" parent="1">
          <mxGeometry x="451" y="-351" width="70" height="30" as="geometry" />
        </mxCell>
        <mxCell id="uy_4LIVcbHyhsobTiHdw-113" value="" style="endArrow=none;html=1;rounded=0;exitX=0.5;exitY=0;exitDx=0;exitDy=0;entryX=1;entryY=1;entryDx=0;entryDy=0;fillColor=#f8cecc;strokeColor=#b85450;" edge="1" parent="1" source="uy_4LIVcbHyhsobTiHdw-61" target="uy_4LIVcbHyhsobTiHdw-112">
          <mxGeometry width="50" height="50" relative="1" as="geometry">
            <mxPoint x="591" y="-152" as="sourcePoint" />
            <mxPoint x="641" y="-202" as="targetPoint" />
          </mxGeometry>
        </mxCell>
        <mxCell id="uy_4LIVcbHyhsobTiHdw-114" value="Password" style="ellipse;whiteSpace=wrap;html=1;" vertex="1" parent="1">
          <mxGeometry x="199" y="-150" width="70" height="30" as="geometry" />
        </mxCell>
        <mxCell id="uy_4LIVcbHyhsobTiHdw-115" value="Status" style="ellipse;whiteSpace=wrap;html=1;" vertex="1" parent="1">
          <mxGeometry x="139" y="-130" width="70" height="30" as="geometry" />
        </mxCell>
        <mxCell id="uy_4LIVcbHyhsobTiHdw-116" value="Create_at" style="ellipse;whiteSpace=wrap;html=1;" vertex="1" parent="1">
          <mxGeometry x="89" y="-100" width="70" height="30" as="geometry" />
        </mxCell>
        <mxCell id="uy_4LIVcbHyhsobTiHdw-117" value="Updated_at" style="ellipse;whiteSpace=wrap;html=1;" vertex="1" parent="1">
          <mxGeometry x="89" y="-63" width="70" height="30" as="geometry" />
        </mxCell>
        <mxCell id="uy_4LIVcbHyhsobTiHdw-118" value="" style="endArrow=none;html=1;rounded=0;exitX=0.5;exitY=0;exitDx=0;exitDy=0;entryX=0.5;entryY=1;entryDx=0;entryDy=0;" edge="1" parent="1" source="uy_4LIVcbHyhsobTiHdw-77" target="uy_4LIVcbHyhsobTiHdw-115">
          <mxGeometry width="50" height="50" relative="1" as="geometry">
            <mxPoint x="430" y="-90" as="sourcePoint" />
            <mxPoint x="480" y="-140" as="targetPoint" />
          </mxGeometry>
        </mxCell>
        <mxCell id="uy_4LIVcbHyhsobTiHdw-123" value="" style="endArrow=none;html=1;rounded=0;exitX=0.5;exitY=0;exitDx=0;exitDy=0;entryX=1;entryY=0.5;entryDx=0;entryDy=0;" edge="1" parent="1" source="uy_4LIVcbHyhsobTiHdw-77" target="uy_4LIVcbHyhsobTiHdw-117">
          <mxGeometry width="50" height="50" relative="1" as="geometry">
            <mxPoint x="420" y="-90" as="sourcePoint" />
            <mxPoint x="470" y="-140" as="targetPoint" />
          </mxGeometry>
        </mxCell>
        <mxCell id="uy_4LIVcbHyhsobTiHdw-124" value="" style="endArrow=none;html=1;rounded=0;exitX=0.5;exitY=0;exitDx=0;exitDy=0;entryX=1;entryY=0.5;entryDx=0;entryDy=0;" edge="1" parent="1" source="uy_4LIVcbHyhsobTiHdw-77" target="uy_4LIVcbHyhsobTiHdw-116">
          <mxGeometry width="50" height="50" relative="1" as="geometry">
            <mxPoint x="420" y="-90" as="sourcePoint" />
            <mxPoint x="470" y="-140" as="targetPoint" />
          </mxGeometry>
        </mxCell>
        <mxCell id="uy_4LIVcbHyhsobTiHdw-125" value="" style="endArrow=none;html=1;rounded=0;exitX=0.5;exitY=0;exitDx=0;exitDy=0;entryX=0.5;entryY=1;entryDx=0;entryDy=0;" edge="1" parent="1" source="uy_4LIVcbHyhsobTiHdw-77" target="uy_4LIVcbHyhsobTiHdw-114">
          <mxGeometry width="50" height="50" relative="1" as="geometry">
            <mxPoint x="420" y="-90" as="sourcePoint" />
            <mxPoint x="470" y="-140" as="targetPoint" />
          </mxGeometry>
        </mxCell>
        <mxCell id="uy_4LIVcbHyhsobTiHdw-126" value="Create_at" style="ellipse;whiteSpace=wrap;html=1;" vertex="1" parent="1">
          <mxGeometry x="39" y="137" width="70" height="30" as="geometry" />
        </mxCell>
        <mxCell id="uy_4LIVcbHyhsobTiHdw-127" value="Updated_at" style="ellipse;whiteSpace=wrap;html=1;" vertex="1" parent="1">
          <mxGeometry x="45" y="322" width="70" height="30" as="geometry" />
        </mxCell>
        <mxCell id="uy_4LIVcbHyhsobTiHdw-130" value="" style="endArrow=none;html=1;rounded=0;exitX=1;exitY=0.5;exitDx=0;exitDy=0;entryX=0;entryY=0.5;entryDx=0;entryDy=0;" edge="1" parent="1" source="uy_4LIVcbHyhsobTiHdw-127" target="uy_4LIVcbHyhsobTiHdw-1">
          <mxGeometry width="50" height="50" relative="1" as="geometry">
            <mxPoint x="380" y="70" as="sourcePoint" />
            <mxPoint x="430" y="20" as="targetPoint" />
          </mxGeometry>
        </mxCell>
        <mxCell id="uy_4LIVcbHyhsobTiHdw-131" value="" style="endArrow=none;html=1;rounded=0;exitX=1;exitY=0.5;exitDx=0;exitDy=0;entryX=0;entryY=0.5;entryDx=0;entryDy=0;" edge="1" parent="1" source="uy_4LIVcbHyhsobTiHdw-126" target="uy_4LIVcbHyhsobTiHdw-1">
          <mxGeometry width="50" height="50" relative="1" as="geometry">
            <mxPoint x="380" y="70" as="sourcePoint" />
            <mxPoint x="430" y="20" as="targetPoint" />
          </mxGeometry>
        </mxCell>
        <mxCell id="uy_4LIVcbHyhsobTiHdw-132" value="Handle" style="rhombus;whiteSpace=wrap;html=1;" vertex="1" parent="1">
          <mxGeometry x="190" y="248" width="80" height="80" as="geometry" />
        </mxCell>
        <mxCell id="uy_4LIVcbHyhsobTiHdw-133" value="super Admin" style="rounded=0;whiteSpace=wrap;html=1;" vertex="1" parent="1">
          <mxGeometry x="170" y="360" width="120" height="60" as="geometry" />
        </mxCell>
        <mxCell id="uy_4LIVcbHyhsobTiHdw-134" value="" style="endArrow=none;html=1;rounded=0;exitX=0.5;exitY=0;exitDx=0;exitDy=0;entryX=0.5;entryY=1;entryDx=0;entryDy=0;" edge="1" parent="1" source="uy_4LIVcbHyhsobTiHdw-132" target="uy_4LIVcbHyhsobTiHdw-1">
          <mxGeometry width="50" height="50" relative="1" as="geometry">
            <mxPoint x="350" y="340" as="sourcePoint" />
            <mxPoint x="400" y="290" as="targetPoint" />
          </mxGeometry>
        </mxCell>
        <mxCell id="uy_4LIVcbHyhsobTiHdw-135" value="" style="endArrow=none;html=1;rounded=0;exitX=0.5;exitY=0;exitDx=0;exitDy=0;entryX=0.5;entryY=1;entryDx=0;entryDy=0;" edge="1" parent="1" source="uy_4LIVcbHyhsobTiHdw-133" target="uy_4LIVcbHyhsobTiHdw-132">
          <mxGeometry width="50" height="50" relative="1" as="geometry">
            <mxPoint x="350" y="330" as="sourcePoint" />
            <mxPoint x="400" y="280" as="targetPoint" />
          </mxGeometry>
        </mxCell>
        <mxCell id="uy_4LIVcbHyhsobTiHdw-136" value="&lt;u&gt;SuperAdminId&lt;/u&gt;" style="ellipse;whiteSpace=wrap;html=1;" vertex="1" parent="1">
          <mxGeometry x="322" y="271" width="80" height="30" as="geometry" />
        </mxCell>
        <mxCell id="uy_4LIVcbHyhsobTiHdw-137" value="UserName" style="ellipse;whiteSpace=wrap;html=1;" vertex="1" parent="1">
          <mxGeometry x="355" y="303" width="70" height="30" as="geometry" />
        </mxCell>
        <mxCell id="uy_4LIVcbHyhsobTiHdw-139" value="Password" style="ellipse;whiteSpace=wrap;html=1;" vertex="1" parent="1">
          <mxGeometry x="367" y="336" width="70" height="30" as="geometry" />
        </mxCell>
        <mxCell id="uy_4LIVcbHyhsobTiHdw-140" value="Status" style="ellipse;whiteSpace=wrap;html=1;" vertex="1" parent="1">
          <mxGeometry x="385" y="369" width="70" height="30" as="geometry" />
        </mxCell>
        <mxCell id="uy_4LIVcbHyhsobTiHdw-141" value="Create_at" style="ellipse;whiteSpace=wrap;html=1;" vertex="1" parent="1">
          <mxGeometry x="385" y="406" width="70" height="30" as="geometry" />
        </mxCell>
        <mxCell id="uy_4LIVcbHyhsobTiHdw-142" value="Updated_at" style="ellipse;whiteSpace=wrap;html=1;" vertex="1" parent="1">
          <mxGeometry x="385" y="443" width="70" height="30" as="geometry" />
        </mxCell>
        <mxCell id="uy_4LIVcbHyhsobTiHdw-144" value="" style="endArrow=none;html=1;rounded=0;entryX=0;entryY=0.5;entryDx=0;entryDy=0;exitX=1;exitY=0.5;exitDx=0;exitDy=0;" edge="1" parent="1" source="uy_4LIVcbHyhsobTiHdw-133" target="uy_4LIVcbHyhsobTiHdw-142">
          <mxGeometry width="50" height="50" relative="1" as="geometry">
            <mxPoint x="50" y="540" as="sourcePoint" />
            <mxPoint x="100" y="490" as="targetPoint" />
          </mxGeometry>
        </mxCell>
        <mxCell id="uy_4LIVcbHyhsobTiHdw-145" value="" style="endArrow=none;html=1;rounded=0;entryX=0;entryY=0.5;entryDx=0;entryDy=0;exitX=1;exitY=0.5;exitDx=0;exitDy=0;" edge="1" parent="1" source="uy_4LIVcbHyhsobTiHdw-133" target="uy_4LIVcbHyhsobTiHdw-141">
          <mxGeometry width="50" height="50" relative="1" as="geometry">
            <mxPoint x="50" y="540" as="sourcePoint" />
            <mxPoint x="100" y="490" as="targetPoint" />
          </mxGeometry>
        </mxCell>
        <mxCell id="uy_4LIVcbHyhsobTiHdw-146" value="" style="endArrow=none;html=1;rounded=0;entryX=0;entryY=0.5;entryDx=0;entryDy=0;exitX=1;exitY=0.5;exitDx=0;exitDy=0;" edge="1" parent="1" source="uy_4LIVcbHyhsobTiHdw-133" target="uy_4LIVcbHyhsobTiHdw-140">
          <mxGeometry width="50" height="50" relative="1" as="geometry">
            <mxPoint x="50" y="540" as="sourcePoint" />
            <mxPoint x="100" y="490" as="targetPoint" />
          </mxGeometry>
        </mxCell>
        <mxCell id="uy_4LIVcbHyhsobTiHdw-147" value="" style="endArrow=none;html=1;rounded=0;entryX=0;entryY=1;entryDx=0;entryDy=0;exitX=1;exitY=0.5;exitDx=0;exitDy=0;" edge="1" parent="1" source="uy_4LIVcbHyhsobTiHdw-133" target="uy_4LIVcbHyhsobTiHdw-139">
          <mxGeometry width="50" height="50" relative="1" as="geometry">
            <mxPoint x="50" y="540" as="sourcePoint" />
            <mxPoint x="100" y="490" as="targetPoint" />
          </mxGeometry>
        </mxCell>
        <mxCell id="uy_4LIVcbHyhsobTiHdw-148" value="" style="endArrow=none;html=1;rounded=0;entryX=0;entryY=1;entryDx=0;entryDy=0;exitX=1;exitY=0.5;exitDx=0;exitDy=0;" edge="1" parent="1" source="uy_4LIVcbHyhsobTiHdw-133" target="uy_4LIVcbHyhsobTiHdw-137">
          <mxGeometry width="50" height="50" relative="1" as="geometry">
            <mxPoint x="50" y="540" as="sourcePoint" />
            <mxPoint x="100" y="490" as="targetPoint" />
          </mxGeometry>
        </mxCell>
        <mxCell id="uy_4LIVcbHyhsobTiHdw-149" value="" style="endArrow=none;html=1;rounded=0;entryX=0;entryY=1;entryDx=0;entryDy=0;exitX=1;exitY=0.5;exitDx=0;exitDy=0;" edge="1" parent="1" source="uy_4LIVcbHyhsobTiHdw-133" target="uy_4LIVcbHyhsobTiHdw-136">
          <mxGeometry width="50" height="50" relative="1" as="geometry">
            <mxPoint x="50" y="540" as="sourcePoint" />
            <mxPoint x="100" y="490" as="targetPoint" />
          </mxGeometry>
        </mxCell>
        <mxCell id="uy_4LIVcbHyhsobTiHdw-150" value="M" style="text;html=1;align=center;verticalAlign=middle;resizable=0;points=[];autosize=1;strokeColor=none;fillColor=none;" vertex="1" parent="1">
          <mxGeometry x="225" y="218" width="30" height="30" as="geometry" />
        </mxCell>
        <mxCell id="uy_4LIVcbHyhsobTiHdw-151" value="1" style="text;html=1;align=center;verticalAlign=middle;resizable=0;points=[];autosize=1;strokeColor=none;fillColor=none;" vertex="1" parent="1">
          <mxGeometry x="225" y="328" width="30" height="30" as="geometry" />
        </mxCell>
        <mxCell id="uy_4LIVcbHyhsobTiHdw-152" value="Booking" style="rounded=0;whiteSpace=wrap;html=1;" vertex="1" parent="1">
          <mxGeometry x="820" y="161" width="120" height="60" as="geometry" />
        </mxCell>
        <mxCell id="uy_4LIVcbHyhsobTiHdw-153" value="" style="endArrow=none;html=1;rounded=0;entryX=0;entryY=0.5;entryDx=0;entryDy=0;" edge="1" parent="1" source="uy_4LIVcbHyhsobTiHdw-45" target="uy_4LIVcbHyhsobTiHdw-152">
          <mxGeometry width="50" height="50" relative="1" as="geometry">
            <mxPoint x="820" y="240" as="sourcePoint" />
            <mxPoint x="890.7106781186548" y="190" as="targetPoint" />
          </mxGeometry>
        </mxCell>
        <mxCell id="uy_4LIVcbHyhsobTiHdw-154" value="" style="endArrow=none;html=1;rounded=0;exitX=0.5;exitY=0;exitDx=0;exitDy=0;entryX=0.5;entryY=1;entryDx=0;entryDy=0;" edge="1" parent="1" source="uy_4LIVcbHyhsobTiHdw-62" target="uy_4LIVcbHyhsobTiHdw-44">
          <mxGeometry width="50" height="50" relative="1" as="geometry">
            <mxPoint x="945" y="130" as="sourcePoint" />
            <mxPoint x="995" y="80" as="targetPoint" />
          </mxGeometry>
        </mxCell>
        <mxCell id="uy_4LIVcbHyhsobTiHdw-156" value="&lt;u&gt;BookingId&lt;/u&gt;" style="ellipse;whiteSpace=wrap;html=1;" vertex="1" parent="1">
          <mxGeometry x="950" y="81" width="70" height="30" as="geometry" />
        </mxCell>
        <mxCell id="uy_4LIVcbHyhsobTiHdw-157" value="Start Date" style="ellipse;whiteSpace=wrap;html=1;" vertex="1" parent="1">
          <mxGeometry x="1026" y="94" width="80" height="30" as="geometry" />
        </mxCell>
        <mxCell id="uy_4LIVcbHyhsobTiHdw-158" value="M" style="text;html=1;align=center;verticalAlign=middle;resizable=0;points=[];autosize=1;strokeColor=none;fillColor=none;" vertex="1" parent="1">
          <mxGeometry x="780" y="162" width="30" height="30" as="geometry" />
        </mxCell>
        <mxCell id="uy_4LIVcbHyhsobTiHdw-159" value="1" style="text;html=1;align=center;verticalAlign=middle;resizable=0;points=[];autosize=1;strokeColor=none;fillColor=none;" vertex="1" parent="1">
          <mxGeometry x="880" y="18" width="30" height="30" as="geometry" />
        </mxCell>
        <mxCell id="uy_4LIVcbHyhsobTiHdw-160" value="M" style="text;html=1;align=center;verticalAlign=middle;resizable=0;points=[];autosize=1;strokeColor=none;fillColor=none;" vertex="1" parent="1">
          <mxGeometry x="880" y="128" width="30" height="30" as="geometry" />
        </mxCell>
        <mxCell id="uy_4LIVcbHyhsobTiHdw-161" value="Tp" style="ellipse;whiteSpace=wrap;html=1;" vertex="1" parent="1">
          <mxGeometry x="844" y="-138" width="70" height="30" as="geometry" />
        </mxCell>
        <mxCell id="uy_4LIVcbHyhsobTiHdw-163" value="Create_at" style="ellipse;whiteSpace=wrap;html=1;" vertex="1" parent="1">
          <mxGeometry x="1012" y="279" width="70" height="30" as="geometry" />
        </mxCell>
        <mxCell id="uy_4LIVcbHyhsobTiHdw-166" value="" style="endArrow=none;html=1;rounded=0;entryX=0;entryY=0;entryDx=0;entryDy=0;exitX=1;exitY=0.5;exitDx=0;exitDy=0;" edge="1" parent="1" source="uy_4LIVcbHyhsobTiHdw-152" target="uy_4LIVcbHyhsobTiHdw-163">
          <mxGeometry width="50" height="50" relative="1" as="geometry">
            <mxPoint x="855" y="320" as="sourcePoint" />
            <mxPoint x="905" y="270" as="targetPoint" />
          </mxGeometry>
        </mxCell>
        <mxCell id="uy_4LIVcbHyhsobTiHdw-167" value="" style="endArrow=none;html=1;rounded=0;entryX=0;entryY=0.5;entryDx=0;entryDy=0;exitX=1;exitY=0.5;exitDx=0;exitDy=0;" edge="1" parent="1" source="uy_4LIVcbHyhsobTiHdw-152" target="uy_4LIVcbHyhsobTiHdw-157">
          <mxGeometry width="50" height="50" relative="1" as="geometry">
            <mxPoint x="855" y="320" as="sourcePoint" />
            <mxPoint x="975" y="190" as="targetPoint" />
          </mxGeometry>
        </mxCell>
        <mxCell id="uy_4LIVcbHyhsobTiHdw-168" value="" style="endArrow=none;html=1;rounded=0;entryX=0.5;entryY=1;entryDx=0;entryDy=0;exitX=1;exitY=0.5;exitDx=0;exitDy=0;" edge="1" parent="1" source="uy_4LIVcbHyhsobTiHdw-152" target="uy_4LIVcbHyhsobTiHdw-156">
          <mxGeometry width="50" height="50" relative="1" as="geometry">
            <mxPoint x="855" y="320" as="sourcePoint" />
            <mxPoint x="905" y="270" as="targetPoint" />
          </mxGeometry>
        </mxCell>
        <mxCell id="uy_4LIVcbHyhsobTiHdw-170" value="Payment" style="rounded=0;whiteSpace=wrap;html=1;fillColor=#f8cecc;strokeColor=#b85450;" vertex="1" parent="1">
          <mxGeometry x="285" y="-410" width="120" height="60" as="geometry" />
        </mxCell>
        <mxCell id="uy_4LIVcbHyhsobTiHdw-174" value="" style="endArrow=none;html=1;rounded=0;exitX=0.5;exitY=0;exitDx=0;exitDy=0;entryX=0.5;entryY=1;entryDx=0;entryDy=0;" edge="1" parent="1" source="uy_4LIVcbHyhsobTiHdw-44" target="uy_4LIVcbHyhsobTiHdw-161">
          <mxGeometry width="50" height="50" relative="1" as="geometry">
            <mxPoint x="1105" y="50" as="sourcePoint" />
            <mxPoint x="1155" as="targetPoint" />
          </mxGeometry>
        </mxCell>
        <mxCell id="uy_4LIVcbHyhsobTiHdw-177" value="Description" style="ellipse;whiteSpace=wrap;html=1;fillColor=#f8cecc;strokeColor=#b85450;" vertex="1" parent="1">
          <mxGeometry x="210" y="-300" width="90" height="30" as="geometry" />
        </mxCell>
        <mxCell id="uy_4LIVcbHyhsobTiHdw-178" value="&lt;u&gt;PayementId&lt;/u&gt;" style="ellipse;whiteSpace=wrap;html=1;fillColor=#f8cecc;strokeColor=#b85450;" vertex="1" parent="1">
          <mxGeometry x="209" y="-333" width="70" height="30" as="geometry" />
        </mxCell>
        <mxCell id="uy_4LIVcbHyhsobTiHdw-179" value="Status" style="ellipse;whiteSpace=wrap;html=1;fillColor=#f8cecc;strokeColor=#b85450;" vertex="1" parent="1">
          <mxGeometry x="288" y="-280" width="70" height="30" as="geometry" />
        </mxCell>
        <mxCell id="uy_4LIVcbHyhsobTiHdw-180" value="Price" style="ellipse;whiteSpace=wrap;html=1;fillColor=#f8cecc;strokeColor=#b85450;" vertex="1" parent="1">
          <mxGeometry x="370" y="-278" width="55" height="26" as="geometry" />
        </mxCell>
        <mxCell id="uy_4LIVcbHyhsobTiHdw-181" value="Date" style="ellipse;whiteSpace=wrap;html=1;fillColor=#f8cecc;strokeColor=#b85450;" vertex="1" parent="1">
          <mxGeometry x="405" y="-310" width="70" height="30" as="geometry" />
        </mxCell>
        <mxCell id="uy_4LIVcbHyhsobTiHdw-182" value="" style="endArrow=none;html=1;rounded=0;entryX=0.5;entryY=1;entryDx=0;entryDy=0;exitX=0;exitY=0;exitDx=0;exitDy=0;fillColor=#f8cecc;strokeColor=#b85450;" edge="1" parent="1" source="uy_4LIVcbHyhsobTiHdw-181" target="uy_4LIVcbHyhsobTiHdw-170">
          <mxGeometry width="50" height="50" relative="1" as="geometry">
            <mxPoint y="-214" as="sourcePoint" />
            <mxPoint x="50" y="-264" as="targetPoint" />
          </mxGeometry>
        </mxCell>
        <mxCell id="uy_4LIVcbHyhsobTiHdw-183" value="" style="endArrow=none;html=1;rounded=0;entryX=0.5;entryY=1;entryDx=0;entryDy=0;exitX=0.5;exitY=0;exitDx=0;exitDy=0;fillColor=#f8cecc;strokeColor=#b85450;" edge="1" parent="1" source="uy_4LIVcbHyhsobTiHdw-180" target="uy_4LIVcbHyhsobTiHdw-170">
          <mxGeometry width="50" height="50" relative="1" as="geometry">
            <mxPoint y="-214" as="sourcePoint" />
            <mxPoint x="50" y="-264" as="targetPoint" />
          </mxGeometry>
        </mxCell>
        <mxCell id="uy_4LIVcbHyhsobTiHdw-184" value="" style="endArrow=none;html=1;rounded=0;entryX=0.5;entryY=1;entryDx=0;entryDy=0;exitX=0.5;exitY=0;exitDx=0;exitDy=0;fillColor=#f8cecc;strokeColor=#b85450;" edge="1" parent="1" source="uy_4LIVcbHyhsobTiHdw-179" target="uy_4LIVcbHyhsobTiHdw-170">
          <mxGeometry width="50" height="50" relative="1" as="geometry">
            <mxPoint y="-214" as="sourcePoint" />
            <mxPoint x="50" y="-264" as="targetPoint" />
          </mxGeometry>
        </mxCell>
        <mxCell id="uy_4LIVcbHyhsobTiHdw-185" value="" style="endArrow=none;html=1;rounded=0;entryX=0.5;entryY=1;entryDx=0;entryDy=0;exitX=1;exitY=0;exitDx=0;exitDy=0;fillColor=#f8cecc;strokeColor=#b85450;" edge="1" parent="1" source="uy_4LIVcbHyhsobTiHdw-177" target="uy_4LIVcbHyhsobTiHdw-170">
          <mxGeometry width="50" height="50" relative="1" as="geometry">
            <mxPoint y="-214" as="sourcePoint" />
            <mxPoint x="50" y="-264" as="targetPoint" />
          </mxGeometry>
        </mxCell>
        <mxCell id="uy_4LIVcbHyhsobTiHdw-186" value="" style="endArrow=none;html=1;rounded=0;entryX=0.5;entryY=1;entryDx=0;entryDy=0;exitX=1;exitY=0.5;exitDx=0;exitDy=0;fillColor=#f8cecc;strokeColor=#b85450;" edge="1" parent="1" source="uy_4LIVcbHyhsobTiHdw-178" target="uy_4LIVcbHyhsobTiHdw-170">
          <mxGeometry width="50" height="50" relative="1" as="geometry">
            <mxPoint y="-214" as="sourcePoint" />
            <mxPoint x="50" y="-264" as="targetPoint" />
          </mxGeometry>
        </mxCell>
        <mxCell id="uy_4LIVcbHyhsobTiHdw-187" value="Status" style="ellipse;whiteSpace=wrap;html=1;" vertex="1" parent="1">
          <mxGeometry x="924" y="-120" width="70" height="30" as="geometry" />
        </mxCell>
        <mxCell id="uy_4LIVcbHyhsobTiHdw-188" value="" style="endArrow=none;html=1;rounded=0;exitX=0.5;exitY=0;exitDx=0;exitDy=0;entryX=0;entryY=0.5;entryDx=0;entryDy=0;" edge="1" parent="1" source="uy_4LIVcbHyhsobTiHdw-44" target="uy_4LIVcbHyhsobTiHdw-187">
          <mxGeometry width="50" height="50" relative="1" as="geometry">
            <mxPoint x="1065" y="60" as="sourcePoint" />
            <mxPoint x="1115" y="10" as="targetPoint" />
          </mxGeometry>
        </mxCell>
        <mxCell id="uy_4LIVcbHyhsobTiHdw-189" value="End Date" style="ellipse;whiteSpace=wrap;html=1;" vertex="1" parent="1">
          <mxGeometry x="1031" y="128" width="80" height="30" as="geometry" />
        </mxCell>
        <mxCell id="uy_4LIVcbHyhsobTiHdw-190" value="How many Hours per day" style="ellipse;whiteSpace=wrap;html=1;" vertex="1" parent="1">
          <mxGeometry x="1039" y="161" width="170" height="22" as="geometry" />
        </mxCell>
        <mxCell id="uy_4LIVcbHyhsobTiHdw-191" value="Price" style="ellipse;whiteSpace=wrap;html=1;" vertex="1" parent="1">
          <mxGeometry x="1009" y="218" width="70" height="22" as="geometry" />
        </mxCell>
        <mxCell id="uy_4LIVcbHyhsobTiHdw-193" value="" style="endArrow=none;html=1;rounded=0;exitX=1;exitY=0.5;exitDx=0;exitDy=0;entryX=0;entryY=0.5;entryDx=0;entryDy=0;" edge="1" parent="1" source="uy_4LIVcbHyhsobTiHdw-152" target="uy_4LIVcbHyhsobTiHdw-190">
          <mxGeometry width="50" height="50" relative="1" as="geometry">
            <mxPoint x="1075" y="10" as="sourcePoint" />
            <mxPoint x="1125" y="-40" as="targetPoint" />
          </mxGeometry>
        </mxCell>
        <mxCell id="uy_4LIVcbHyhsobTiHdw-194" value="" style="endArrow=none;html=1;rounded=0;exitX=1;exitY=0.5;exitDx=0;exitDy=0;entryX=0;entryY=0.5;entryDx=0;entryDy=0;" edge="1" parent="1" source="uy_4LIVcbHyhsobTiHdw-152" target="uy_4LIVcbHyhsobTiHdw-191">
          <mxGeometry width="50" height="50" relative="1" as="geometry">
            <mxPoint x="1085" y="40" as="sourcePoint" />
            <mxPoint x="1135" y="-10" as="targetPoint" />
          </mxGeometry>
        </mxCell>
        <mxCell id="uy_4LIVcbHyhsobTiHdw-196" value="" style="endArrow=none;html=1;rounded=0;exitX=1;exitY=0.5;exitDx=0;exitDy=0;entryX=0;entryY=0.5;entryDx=0;entryDy=0;" edge="1" parent="1" source="uy_4LIVcbHyhsobTiHdw-152" target="uy_4LIVcbHyhsobTiHdw-189">
          <mxGeometry width="50" height="50" relative="1" as="geometry">
            <mxPoint x="1085" y="40" as="sourcePoint" />
            <mxPoint x="1135" y="-10" as="targetPoint" />
          </mxGeometry>
        </mxCell>
        <mxCell id="uy_4LIVcbHyhsobTiHdw-197" value="Advance" style="ellipse;whiteSpace=wrap;html=1;" vertex="1" parent="1">
          <mxGeometry x="1096" y="212" width="70" height="22" as="geometry" />
        </mxCell>
        <mxCell id="uy_4LIVcbHyhsobTiHdw-198" value="Balance" style="ellipse;whiteSpace=wrap;html=1;" vertex="1" parent="1">
          <mxGeometry x="1079" y="188" width="70" height="22" as="geometry" />
        </mxCell>
        <mxCell id="uy_4LIVcbHyhsobTiHdw-199" value="" style="endArrow=none;html=1;rounded=0;entryX=0;entryY=0.5;entryDx=0;entryDy=0;exitX=1;exitY=0.5;exitDx=0;exitDy=0;" edge="1" parent="1" source="uy_4LIVcbHyhsobTiHdw-152" target="uy_4LIVcbHyhsobTiHdw-197">
          <mxGeometry width="50" height="50" relative="1" as="geometry">
            <mxPoint x="855" y="330" as="sourcePoint" />
            <mxPoint x="905" y="280" as="targetPoint" />
          </mxGeometry>
        </mxCell>
        <mxCell id="uy_4LIVcbHyhsobTiHdw-200" value="" style="endArrow=none;html=1;rounded=0;entryX=0;entryY=0.5;entryDx=0;entryDy=0;exitX=1;exitY=0.5;exitDx=0;exitDy=0;" edge="1" parent="1" source="uy_4LIVcbHyhsobTiHdw-152" target="uy_4LIVcbHyhsobTiHdw-198">
          <mxGeometry width="50" height="50" relative="1" as="geometry">
            <mxPoint x="855" y="330" as="sourcePoint" />
            <mxPoint x="905" y="280" as="targetPoint" />
          </mxGeometry>
        </mxCell>
        <mxCell id="uy_4LIVcbHyhsobTiHdw-201" value="Facilitie" style="ellipse;whiteSpace=wrap;html=1;" vertex="1" parent="1">
          <mxGeometry x="666" y="31" width="80" height="30" as="geometry" />
        </mxCell>
        <mxCell id="uy_4LIVcbHyhsobTiHdw-202" value="" style="endArrow=none;html=1;rounded=0;exitX=0.5;exitY=0;exitDx=0;exitDy=0;entryX=0;entryY=1;entryDx=0;entryDy=0;" edge="1" parent="1" source="uy_4LIVcbHyhsobTiHdw-2" target="uy_4LIVcbHyhsobTiHdw-201">
          <mxGeometry width="50" height="50" relative="1" as="geometry">
            <mxPoint x="656" y="130" as="sourcePoint" />
            <mxPoint x="706" y="80" as="targetPoint" />
          </mxGeometry>
        </mxCell>
        <mxCell id="uy_4LIVcbHyhsobTiHdw-203" value="Password" style="ellipse;whiteSpace=wrap;html=1;" vertex="1" parent="1">
          <mxGeometry x="911" y="-84" width="70" height="30" as="geometry" />
        </mxCell>
        <mxCell id="uy_4LIVcbHyhsobTiHdw-204" value="" style="endArrow=none;html=1;rounded=0;exitX=0.5;exitY=0;exitDx=0;exitDy=0;entryX=0;entryY=1;entryDx=0;entryDy=0;" edge="1" parent="1" source="uy_4LIVcbHyhsobTiHdw-44" target="uy_4LIVcbHyhsobTiHdw-203">
          <mxGeometry width="50" height="50" relative="1" as="geometry">
            <mxPoint x="990" y="10" as="sourcePoint" />
            <mxPoint x="1040" y="-40" as="targetPoint" />
          </mxGeometry>
        </mxCell>
      </root>
    </mxGraphModel>
  </diagram>
</mxfile>
